<?xml version="1.0" encoding="utf-8"?>
<!-- Generator: Adobe Illustrator 24.2.2, SVG Export Plug-In . SVG Version: 6.00 Build 0)  -->
<svg version="1.1" id="Layer_1" xmlns="http://www.w3.org/2000/svg" xmlns:xlink="http://www.w3.org/1999/xlink" x="0px" y="0px"
	 viewBox="0 0 30 22" style="enable-background:new 0 0 30 22;" xml:space="preserve">
<style type="text/css">
	.st0{clip-path:url(#SVGID_2_);fill:#BE2C34;}
	.st1{fill:#BE2C34;}
</style>
<g>
	<g>
		<defs>
			<rect id="SVGID_1_" y="0" width="30" height="22"/>
		</defs>
		<clipPath id="SVGID_2_">
			<use xlink:href="#SVGID_1_"  style="overflow:visible;"/>
		</clipPath>
		<path class="st0" d="M6.5,9h1C7.78,9,8,8.78,8,8.5S7.78,8,7.5,8h-1C6.22,8,6,8.22,6,8.5S6.22,9,6.5,9L6.5,9z M6.5,9"/>
		<path class="st0" d="M28,0H2C0.9,0,0,0.9,0,2v18c0,1.1,0.9,2,2,2h26c1.1,0,2-0.9,2-2V2C30,0.9,29.1,0,28,0L28,0z M2,1h26
			c0.55,0,1,0.45,1,1v13H1V2C1,1.45,1.45,1,2,1L2,1z M29,18H1v-2h28V18z M28,21H2c-0.55,0-1-0.45-1-1v-1h28v1
			C29,20.55,28.55,21,28,21L28,21z M28,21"/>
	</g>
	<path class="st1" d="M10.25,11H9.5C9.22,11,9,11.22,9,11.5S9.22,12,9.5,12h0.75c0.96,0,1.75-0.78,1.75-1.75
		c0-0.96-0.79-1.75-1.75-1.75H10V7h1.5C11.78,7,12,6.78,12,6.5C12,6.22,11.78,6,11.5,6h-2C9.22,6,9,6.22,9,6.5V9
		c0,0.28,0.22,0.5,0.5,0.5h0.75c0.41,0,0.75,0.34,0.75,0.75C11,10.66,10.66,11,10.25,11L10.25,11z M10.25,11"/>
	<path class="st1" d="M14.5,12c0.83,0,1.5-0.67,1.5-1.5v-3C16,6.67,15.33,6,14.5,6C13.67,6,13,6.67,13,7.5v3
		C13,11.33,13.67,12,14.5,12L14.5,12z M14,7.5C14,7.22,14.22,7,14.5,7C14.78,7,15,7.22,15,7.5v3c0,0.28-0.22,0.5-0.5,0.5
		c-0.28,0-0.5-0.22-0.5-0.5V7.5z M14,7.5"/>
	<path class="st1" d="M19.28,11.95c0.25,0.13,0.55,0.03,0.67-0.22l3-6c0.08-0.16,0.08-0.35-0.02-0.5c-0.1-0.15-0.27-0.24-0.45-0.23
		c-0.18,0.01-0.34,0.12-0.42,0.28l-3,6C18.93,11.52,19.03,11.82,19.28,11.95L19.28,11.95z M19.28,11.95"/>
	<path class="st1" d="M20,6c0,0.55-0.45,1-1,1c-0.55,0-1-0.45-1-1c0-0.55,0.45-1,1-1C19.55,5,20,5.45,20,6L20,6z M20,6"/>
	<path class="st1" d="M24,11c0,0.55-0.45,1-1,1c-0.55,0-1-0.45-1-1c0-0.55,0.45-1,1-1C23.55,10,24,10.45,24,11L24,11z M24,11"/>
</g>
</svg>
