<svg xmlns="http://www.w3.org/2000/svg" xmlns:xlink="http://www.w3.org/1999/xlink" id="Layer_1" x="0" y="0" version="1.1" viewBox="0 0 24 20" xml:space="preserve" style="enable-background:new 0 0 24 20"><style type="text/css">.st0{clip-path:url(#SVGID_2_);fill:#be2c34}</style><g><g><defs><rect id="SVGID_1_" width="24" height="20" y="0"/></defs><clipPath id="SVGID_2_"><use xlink:href="#SVGID_1_" style="overflow:visible"/></clipPath><path d="M17,11c0,2.76-2.24,5-5,5s-5-2.24-5-5c0-2.76,2.24-5,5-5S17,8.24,17,11L17,11z M17,11" class="st0"/><path d="M22,3h-3.17c-0.39,0-0.78-0.16-1.06-0.44l-1.83-1.83C15.47,0.26,14.83,0,14.17,0H9.83 c-0.66,0-1.3,0.26-1.77,0.73L6.23,2.56C5.95,2.84,5.57,3,5.17,3H2C0.89,3,0,3.9,0,5v13c0,1.1,0.89,2,2,2h20c1.11,0,2-0.89,2-2V5 C24,3.9,23.11,3,22,3L22,3z M12,17c-3.31,0-6-2.69-6-6c0-3.31,2.69-6,6-6s6,2.69,6,6C18,14.31,15.31,17,12,17L12,17z M20,8 c-0.55,0-1-0.45-1-1c0-0.55,0.45-1,1-1c0.55,0,1,0.45,1,1C21,7.55,20.55,8,20,8L20,8z M20,8" class="st0"/></g></g></svg>