<svg xmlns="http://www.w3.org/2000/svg" xmlns:xlink="http://www.w3.org/1999/xlink" id="Layer_1" x="0" y="0" version="1.1" viewBox="0 0 22 30" xml:space="preserve" style="enable-background:new 0 0 22 30"><style type="text/css">.st0,.st1{fill:#be2c34}.st1{clip-path:url(#SVGID_2_)}</style><g><path d="M11,3.5C11,3.22,10.78,3,10.5,3h-1C9.22,3,9,3.22,9,3.5S9.22,4,9.5,4h1C10.78,4,11,3.78,11,3.5L11,3.5z M11,3.5" class="st0"/><g><defs><rect id="SVGID_1_" width="22" height="30"/></defs><clipPath id="SVGID_2_"><use xlink:href="#SVGID_1_" style="overflow:visible"/></clipPath><path d="M17,3.5C17,3.78,16.78,4,16.5,4C16.22,4,16,3.78,16,3.5S16.22,3,16.5,3C16.78,3,17,3.22,17,3.5L17,3.5z M17,3.5" class="st1"/><path d="M20.5,8H20V2c0-1.1-0.9-2-2-2H2C0.9,0,0,0.9,0,2v26c0,1.1,0.9,2,2,2h16c1.1,0,2-0.9,2-2v-7h0.5 c0.83,0,1.5-0.67,1.5-1.5v-10C22,8.67,21.33,8,20.5,8L20.5,8z M11.5,28h-3C8.22,28,8,27.78,8,27.5S8.22,27,8.5,27h3 c0.28,0,0.5,0.22,0.5,0.5S11.78,28,11.5,28L11.5,28z M18,25H2V2h16v6h-6.5C10.67,8,10,8.67,10,9.5v10c0,0.83,0.67,1.5,1.5,1.5H18 V25z M19.5,18h-7c-0.28,0-0.5-0.22-0.5-0.5s0.22-0.5,0.5-0.5h7c0.28,0,0.5,0.22,0.5,0.5S19.78,18,19.5,18L19.5,18z M19.5,15h-7 c-0.28,0-0.5-0.22-0.5-0.5s0.22-0.5,0.5-0.5h7c0.28,0,0.5,0.22,0.5,0.5S19.78,15,19.5,15L19.5,15z M19.5,12h-7 c-0.28,0-0.5-0.22-0.5-0.5s0.22-0.5,0.5-0.5h7c0.28,0,0.5,0.22,0.5,0.5S19.78,12,19.5,12L19.5,12z M19.5,12" class="st1"/></g></g></svg>