<svg xmlns="http://www.w3.org/2000/svg" xmlns:xlink="http://www.w3.org/1999/xlink" id="Layer_1" x="0" y="0" version="1.1" viewBox="0 0 28 24" xml:space="preserve" style="enable-background:new 0 0 28 24"><style type="text/css">.st0{fill-rule:evenodd;clip-rule:evenodd}.st0,.st1{fill:#be2c34}</style><g><path d="M4,4v1h7V4H4z M19,4v1h1V4H19z M21,4v1h1V4H21z M23,4v1h1V4H23z M4,6v1h5V6H4z M4.2,10.75 c-0.36-0.03-0.72,0.01-1.07,0.13c-0.35,0.11-0.66,0.3-0.93,0.54l0.66,0.75c0.17-0.15,0.37-0.27,0.59-0.34 c0.43-0.14,0.93-0.1,1.32,0.11c0.42,0.22,0.79,0.67,1.27,1.12c0.24,0.23,0.52,0.45,0.86,0.62c0.34,0.17,0.75,0.27,1.17,0.21 c0.42-0.05,0.78-0.25,1.06-0.48c0.29-0.22,0.5-0.47,0.71-0.69c0.2-0.22,0.39-0.41,0.59-0.54c0.19-0.13,0.39-0.2,0.56-0.19 c0.17,0.01,0.37,0.09,0.56,0.23c0.19,0.14,0.38,0.34,0.58,0.57c0.21,0.23,0.44,0.48,0.74,0.7c0.31,0.22,0.69,0.4,1.14,0.4 c0.45,0,0.83-0.18,1.14-0.4c0.3-0.22,0.53-0.48,0.74-0.7h0c0.21-0.23,0.39-0.43,0.58-0.57c0.18-0.14,0.39-0.22,0.56-0.23 c0.16,0,0.37,0.06,0.56,0.19c0.19,0.13,0.38,0.32,0.59,0.54c0.2,0.21,0.42,0.46,0.71,0.69c0.29,0.23,0.64,0.43,1.06,0.48 c0.42,0.05,0.82-0.04,1.17-0.21c0.34-0.17,0.62-0.39,0.86-0.62c0.48-0.45,0.85-0.9,1.27-1.12c0.4-0.21,0.89-0.25,1.32-0.11 c0.21,0.07,0.42,0.2,0.6,0.35l0.67-0.74c-0.27-0.25-0.6-0.45-0.95-0.56c-0.69-0.24-1.46-0.17-2.11,0.18 c-0.66,0.35-1.07,0.89-1.48,1.28c-0.21,0.19-0.41,0.35-0.62,0.45c-0.2,0.1-0.42,0.15-0.6,0.12c-0.18-0.03-0.38-0.13-0.57-0.28 c-0.2-0.15-0.38-0.36-0.59-0.59c-0.21-0.23-0.45-0.48-0.77-0.69c-0.32-0.21-0.71-0.37-1.15-0.36c-0.44,0.02-0.82,0.2-1.12,0.43 c-0.3,0.22-0.52,0.48-0.73,0.7c-0.21,0.22-0.39,0.42-0.58,0.56c-0.19,0.13-0.4,0.21-0.56,0.21s-0.37-0.08-0.55-0.21 c-0.19-0.14-0.38-0.34-0.58-0.56c-0.21-0.23-0.43-0.48-0.73-0.7c-0.3-0.23-0.68-0.41-1.12-0.43c-0.44-0.02-0.83,0.15-1.15,0.36 c-0.31,0.21-0.56,0.46-0.77,0.69c-0.21,0.23-0.4,0.43-0.59,0.59c-0.19,0.15-0.39,0.25-0.57,0.28c-0.18,0.02-0.4-0.02-0.6-0.12 c-0.21-0.1-0.41-0.26-0.62-0.45c-0.41-0.38-0.82-0.93-1.48-1.28C4.91,10.89,4.56,10.79,4.2,10.75L4.2,10.75z M4.2,10.75" class="st0"/><path d="M2,0C0.9,0,0,0.9,0,2v14c0,1.1,0.9,2,2,2h8v3H8c-1.1,0-2,0.9-2,2v1h16v-1c0-1.1-0.9-2-2-2h-2v-3h8 c1.1,0,2-0.9,2-2V2c0-1.1-0.9-2-2-2H2z M2,1h24c0.56,0,1,0.44,1,1v14c0,0.56-0.44,1-1,1H2c-0.56,0-1-0.44-1-1V2C1,1.44,1.44,1,2,1 L2,1z M2,2v14h24V2H2z M3,3h22v12H3V3z M11,18h6v3h-6V18z M8,22h12c0.56,0,1,0.44,1,1H7C7,22.44,7.44,22,8,22L8,22z M8,22" class="st1"/></g></svg>