<?xml version="1.0" encoding="utf-8"?>
<!-- Generator: Adobe Illustrator 24.2.2, SVG Export Plug-In . SVG Version: 6.00 Build 0)  -->
<svg version="1.1" id="Layer_1" xmlns="http://www.w3.org/2000/svg" xmlns:xlink="http://www.w3.org/1999/xlink" x="0px" y="0px"
	 viewBox="0 0 580.1 172" style="enable-background:new 0 0 580.1 172;" xml:space="preserve">
<style type="text/css">
	.st0{fill:#BE2C34;}
</style>
<path class="st0" d="M548.9,86.4v46.1H531v13.4h17.8v3.9H531v12.6h17.8v1.3c0,4.6,4.2,8.3,8.9,8.3s8.9-3.7,8.9-8.3V86.3
	c-4.1,1-5.8,1.6-8.8,1.6c-0.1,0-0.2,0-0.3,0c-0.1,0-0.3,0-0.3,0C554.4,87.9,551.3,87.4,548.9,86.4z"/>
<path class="st0" d="M580.1,65.8c0-12.2-10.2-22.1-22.7-22.1c-12.5,0-22.7,9.9-22.7,22.1c0,9.3,5.9,17.2,14.3,20.5
	c0.1,0,0.1,0,0.2,0.1c2.6,1,5.4,1.5,8.3,1.5c0.1,0,0.1,0,0.2,0c2.9,0,5.7-0.6,8.3-1.6C574.2,83,580.1,75.1,580.1,65.8z M557.4,76.4
	c-6,0-10.9-4.7-10.9-10.6s4.9-10.6,10.9-10.6s10.9,4.7,10.9,10.6S563.4,76.4,557.4,76.4z"/>
<polygon class="st0" points="95,130.7 45.2,0 38.1,0 38.1,51.2 84.1,171 105.5,171 156.7,39.6 154,114.8 154,171 183.4,171 183.4,0 
	144.6,0 "/>
<g>
	<path d="M32.6,153.4c-1.4-2.4-3.5-4.3-5.9-5.6c-2.5-1.3-5.4-2-8.5-2h-1.6c-3.1,0-5.9,0.8-8.3,2.1c-1.7,0.9-3.1,2.1-4.3,3.5
		c-0.5,0.6-1.1,1.3-1.5,2.1c-1.4,2.4-2.1,5.1-2.1,8V172H35v-3v-7.7C35,158.4,34,155.8,32.6,153.4z M6.5,161.6c0-2.4,1-4.4,2.6-5.6
		c1.7-1.2,4.3-2.1,7.5-2.1h1.5c3.3,0,5.7,0.8,7.3,2.1c1.7,1.2,2.4,3.2,2.4,5.5v2.5H6.5V161.6z"/>
	<polygon points="35,140.8 35,132.8 4,132.8 0.5,132.8 0.5,140.8 4,140.8 	"/>
	<path d="M7.8,126.5c2.5,1.2,5.4,1.8,8.8,1.8l2.9,0c4.8-0.2,8.6-1.6,11.4-4.2c2.7-2.6,4.1-6.1,4.1-10.5c0-2.9-0.4-5.3-1.3-7.7
		c-0.9-2.4-2-4.2-3.4-5.2H16.7v14.1h5.1v-6h5.4c0.9,1,1.4,2.4,1.4,4.5c0,2.5-0.9,4.5-2.6,5.6c-1.7,1.1-4.2,1.9-7.6,1.9h-2.1
		c-3.2,0-5.7-0.9-7.5-2c-1.7-1.1-2.6-2.8-2.6-4.9c0-1.7,0.4-3.1,1.3-4c0.8-0.9,2.1-1.6,4.1-1.9v-7.8c-3,0.3-5.7,1.3-7.6,2.9
		c-0.4,0.3-0.8,0.7-1.1,1.1C1,106.5,0,109.7,0,113.9c0,2.9,0.7,5.4,2,7.6c0.6,0.9,1.2,1.7,2,2.4C5.1,124.9,6.3,125.8,7.8,126.5z"/>
	<polygon points="35,94.5 35,86.5 4,86.5 0.5,86.5 0.5,94.5 4,94.5 	"/>
	<polygon points="6.5,83.5 6.5,73.4 35,73.4 35,65.4 6.5,65.4 6.5,55.3 4,55.3 0.5,55.3 0.5,83.5 4,83.5 	"/>
	<path d="M35,57.4v-8.6l-7.1-1.9V35.8l7.1-2v-8.7L4.3,36.2l-3.8,1.3v7.6l3.8,1.3L35,57.4z M21.8,37.7v7.2L10,41.3L21.8,37.7z"/>
	<polygon points="35,23.1 35,0 27.9,0 27.9,15.1 4,15.1 0.5,15.1 0.5,23.1 4,23.1 	"/>
</g>
<path class="st0" d="M282.4,169.3c-1.3-2.5-2.4-6.5-3.3-12c-9.2,9.6-20.5,14.4-33.8,14.4c-12.9,0-23.5-3.7-31.7-11.1
	c-8.2-7.4-12.3-16.5-12.3-27.4c0-13.7,5.1-24.3,15.3-31.6c10.2-7.3,24.8-11,43.8-11h17.8v-8.5c0-6.7-1.9-12-5.6-16
	c-3.7-4-9.4-6-17-6c-6.6,0-12,1.6-16.2,4.9c-4.2,3.3-6.3,7.5-6.3,12.6h-29c0-7.1,2.3-13.7,7-19.8c4.7-6.2,11.1-11,19.1-14.5
	c8.1-3.5,17.1-5.2,27-5.2c15.1,0,27.1,3.8,36.1,11.4c9,7.6,13.6,18.2,13.8,32v58.1c0,11.6,1.6,20.8,4.9,27.8v2H282.4z M250.6,148.5
	c5.7,0,11.1-1.4,16.1-4.2c5-2.8,8.8-6.5,11.4-11.2v-24.3h-15.6c-10.7,0-18.8,1.9-24.2,5.6c-5.4,3.7-8.1,9-8.1,15.8
	c0,5.6,1.8,10,5.5,13.3C239.4,146.8,244.4,148.5,250.6,148.5z"/>
<path class="st0" d="M397.9,68.8c-3.8-0.6-7.7-1-11.8-1c-13.3,0-22.2,5.1-26.8,15.2v88.2h-29V42.4H358l0.7,14.4
	c7-11.2,16.7-16.8,29.1-16.8c4.1,0,7.5,0.6,10.2,1.7L397.9,68.8z"/>
<path class="st0" d="M450.7,119.9l-12.5,12.4v39.5h-28V0h28v99.1l8.8-10.6l34.5-37.7h33.7l-46.3,50.4l51.3,70.6h-32.4L450.7,119.9z"
	/>
</svg>
