<svg xmlns="http://www.w3.org/2000/svg" xmlns:xlink="http://www.w3.org/1999/xlink" id="Layer_1" x="0" y="0" version="1.1" viewBox="0 0 26 26" xml:space="preserve" style="enable-background:new 0 0 26 26"><style type="text/css">.st0{clip-path:url(#SVGID_2_)}.st0,.st1{fill:#be2c34}</style><g><g><defs><rect id="SVGID_1_" width="26" height="26"/></defs><clipPath id="SVGID_2_"><use xlink:href="#SVGID_1_" style="overflow:visible"/></clipPath><path d="M24.79,12.09l-11.5-11.5C12.92,0.21,12.41,0,11.88,0L2.01,0.01c-1.11,0-2,0.89-2,2L0,11.86 c0,0.54,0.22,1.07,0.61,1.45L12.77,25c0.66,0.64,1.55,1,2.47,1c0.95,0,1.84-0.37,2.52-1.04l7.04-7.04C25.57,17.14,26,16.09,26,15 C26,13.9,25.57,12.86,24.79,12.09L24.79,12.09z M24.09,17.21l-7.04,7.04c-0.95,0.95-2.61,0.97-3.59,0.04L1.3,12.58 C1.11,12.4,1,12.13,1,11.86l0.01-9.86c0-0.55,0.45-1,1-1L11.88,1c0.27,0,0.52,0.11,0.71,0.29l11.5,11.5 C24.67,13.38,25,14.17,25,15C25,15.84,24.68,16.62,24.09,17.21L24.09,17.21z M24.09,17.21" class="st0"/></g><path d="M4.52,2.03c-1.37,0-2.49,1.12-2.49,2.49S3.14,7,4.52,7S7,5.89,7,4.52S5.89,2.03,4.52,2.03L4.52,2.03z M4.52,6 C3.69,6,3.03,5.33,3.03,4.52c0-0.82,0.67-1.49,1.49-1.49C5.33,3.03,6,3.7,6,4.52C6,5.33,5.33,6,4.52,6L4.52,6z M4.52,6" class="st1"/><path d="M10.53,9.71C10.35,9.52,10.24,9.27,10.24,9c0-0.27,0.11-0.52,0.29-0.71c0.4-0.38,1.02-0.38,1.41,0l1.06,1.06 c0.2,0.2,0.51,0.2,0.71,0c0.2-0.19,0.2-0.51,0-0.71l-1.06-1.06c-0.75-0.76-2.07-0.76-2.83,0C9.45,7.97,9.24,8.46,9.24,9 c0,0.53,0.21,1.04,0.59,1.41c0.39,0.39,0.39,1.02,0,1.41c-0.39,0.39-1.02,0.39-1.41,0l-1.06-1.06c-0.12-0.14-0.31-0.19-0.49-0.15 c-0.18,0.05-0.32,0.18-0.36,0.36c-0.04,0.18,0.01,0.36,0.15,0.49l1.06,1.06c0.39,0.39,0.9,0.59,1.41,0.59s1.02-0.19,1.41-0.59 C11.32,11.75,11.32,10.49,10.53,9.71L10.53,9.71z M10.53,9.71" class="st1"/><path d="M14.17,14.74c0.09,0.09,0.22,0.15,0.36,0.15c0.13,0,0.26-0.05,0.35-0.15c0.2-0.2,0.2-0.51,0-0.71l-1.41-1.41 l1.41-1.41l1.77,1.77c0.12,0.13,0.31,0.18,0.49,0.14c0.18-0.04,0.31-0.18,0.36-0.36c0.04-0.18-0.01-0.36-0.14-0.49l-2.12-2.12 c-0.19-0.19-0.51-0.19-0.71,0l-4.25,4.24c-0.2,0.2-0.2,0.51,0,0.71l2.12,2.12c0.09,0.09,0.22,0.14,0.36,0.14 c0.13,0,0.26-0.05,0.35-0.14c0.2-0.2,0.2-0.51,0-0.71l-1.77-1.77l1.41-1.41L14.17,14.74z M14.17,14.74" class="st1"/><path d="M16.59,14.59l-2.12,2.12c-0.78,0.78-0.78,2.05,0,2.83c0.39,0.39,0.9,0.59,1.41,0.59s1.02-0.2,1.41-0.59 l2.12-2.12C19.79,17.04,20,16.54,20,16c0-0.53-0.21-1.03-0.59-1.41C18.66,13.83,17.34,13.83,16.59,14.59L16.59,14.59z M18.71,16.71 l-2.12,2.12c-0.39,0.39-1.02,0.39-1.41,0c-0.39-0.39-0.39-1.02,0-1.41l2.12-2.12c0.4-0.38,1.02-0.38,1.41,0 C18.9,15.48,19,15.73,19,16C19,16.27,18.89,16.52,18.71,16.71L18.71,16.71z M18.71,16.71" class="st1"/></g></svg>