<svg xmlns="http://www.w3.org/2000/svg" xmlns:xlink="http://www.w3.org/1999/xlink" id="Layer_1" x="0" y="0" version="1.1" viewBox="0 0 30 30" xml:space="preserve" style="enable-background:new 0 0 30 30"><style type="text/css">.st0{fill:#be2c34}</style><g><path d="M27.4,19.8c0.4-1.2,0.6-2.5,0.6-3.8c0-2.2-0.6-4.3-1.8-6.2c-0.1-0.1-0.2-0.2-0.4-0.2c-0.2,0-0.3,0-0.4,0.2 c-0.2,0.2-0.4,0.5-0.7,0.7c-0.2,0.2-0.2,0.4-0.1,0.6c0.9,1.5,1.3,3.2,1.3,5c0,1-0.2,2.1-0.5,3.1c-0.3-0.1-0.7-0.1-1-0.1 c-3,0-5.5,2.5-5.5,5.5s2.5,5.5,5.5,5.5s5.5-2.5,5.5-5.5C30,22.6,29,20.8,27.4,19.8L27.4,19.8z" class="st0"/><path d="M7,9.2c0.4,0.1,0.7,0.2,1,0.3c0.2,0.1,0.4,0,0.6-0.1c1.7-1.9,4-3.1,6.5-3.3c0.3,2.8,2.6,4.9,5.5,5 c3,0,5.5-2.5,5.5-5.5S23.5,0,20.5,0c-2.5,0-4.7,1.7-5.3,4c-3.3,0.2-6.4,1.8-8.5,4.3C6.6,8.5,6.6,8.7,6.6,8.9C6.7,9,6.8,9.1,7,9.2 L7,9.2z" class="st0"/><path d="M18.2,26.2c-0.1-0.2-0.3-0.4-0.6-0.4C17.1,26,16.6,26,16,26c-3.8,0-7.1-2.1-8.8-5.3C9.5,20,11,17.9,11,15.5 c0-3-2.5-5.5-5.5-5.5S0,12.5,0,15.5c0,2.9,2.2,5.3,5.1,5.5c1.9,4.1,6.1,7,10.9,7c0.7,0,1.4-0.1,2.2-0.2c0.1,0,0.3-0.1,0.4-0.3 c0.1-0.1,0.1-0.3,0-0.4C18.4,26.8,18.3,26.5,18.2,26.2L18.2,26.2z" class="st0"/></g></svg>