<?xml version="1.0" encoding="utf-8"?>
<!-- Generator: Adobe Illustrator 24.2.2, SVG Export Plug-In . SVG Version: 6.00 Build 0)  -->
<svg version="1.1" id="Layer_1" xmlns="http://www.w3.org/2000/svg" xmlns:xlink="http://www.w3.org/1999/xlink" x="0px" y="0px"
	 viewBox="0 0 960 560" style="enable-background:new 0 0 960 560;" xml:space="preserve">
<style type="text/css">
	.st0{fill:#BE2C34;}
</style>
<g>
	<path class="st0" d="M492.36,284.81c0.42-1.23,0.63-2.52,0.64-3.81c0-2.19-0.6-4.34-1.75-6.22c-0.08-0.14-0.23-0.23-0.39-0.24
		c-0.16-0.01-0.32,0.05-0.42,0.18c-0.2,0.23-0.43,0.46-0.67,0.68c-0.18,0.16-0.22,0.42-0.11,0.63c0.88,1.51,1.34,3.23,1.34,4.98
		c0,1.05-0.18,2.1-0.51,3.09c-0.33-0.06-0.66-0.09-0.99-0.09c-3.03,0-5.5,2.47-5.5,5.5s2.47,5.5,5.5,5.5c3.03,0,5.5-2.47,5.5-5.5
		C495,287.59,494,285.81,492.36,284.81L492.36,284.81z M492.36,284.81"/>
	<path class="st0" d="M472,274.18c0.35,0.08,0.67,0.18,0.97,0.31c0.2,0.08,0.42,0.03,0.56-0.13c1.67-1.88,3.99-3.06,6.49-3.31
		c0.29,2.81,2.65,4.94,5.47,4.95c3.03,0,5.5-2.47,5.5-5.5c0-3.03-2.47-5.5-5.5-5.5c-2.53,0-4.66,1.72-5.3,4.04
		c-3.3,0.21-6.37,1.78-8.47,4.34c-0.11,0.13-0.14,0.31-0.08,0.48C471.7,274.02,471.84,274.15,472,274.18L472,274.18z M472,274.18"/>
	<path class="st0" d="M483.23,291.21c-0.07-0.25-0.31-0.41-0.56-0.36c-0.55,0.1-1.11,0.15-1.67,0.15c-3.8,0-7.12-2.14-8.81-5.27
		c2.27-0.74,3.8-2.85,3.81-5.23c0-3.03-2.47-5.5-5.5-5.5c-3.03,0-5.5,2.47-5.5,5.5c0,2.89,2.25,5.27,5.1,5.48
		c1.89,4.13,6.06,7.02,10.9,7.02c0.71,0,1.42-0.07,2.18-0.21c0.15-0.03,0.28-0.12,0.35-0.26c0.07-0.13,0.08-0.29,0.02-0.43
		C483.42,291.81,483.32,291.51,483.23,291.21L483.23,291.21z M483.23,291.21"/>
</g>
</svg>
