<svg xmlns="http://www.w3.org/2000/svg" xmlns:xlink="http://www.w3.org/1999/xlink" id="Layer_1" x="0" y="0" version="1.1" viewBox="0 0 22 29" xml:space="preserve" style="enable-background:new 0 0 22 29"><style type="text/css">.st0,.st1{fill:#be2c34}.st1{fill-rule:evenodd;clip-rule:evenodd}</style><g><path d="M0.5,2C0.22,2,0,2.23,0.01,2.51L0,2.5v26C0,28.77,0.22,29,0.5,29h21c0.28,0,0.5-0.22,0.5-0.5v-26 C22,2.22,21.78,2,21.5,2h-6c-0.62,0-0.21,1.06,0,1H21v25H1V3h5.5c0.57,0.01,0.39-1.01,0-1L0.5,2L0.5,2z M0.5,2" class="st0"/><path d="M2.5,4C2.22,4,2,4.22,2,4.5v22C2,26.78,2.22,27,2.5,27h17c0.28,0,0.5-0.22,0.5-0.5v-22C20,4.22,19.78,4,19.5,4 H17v1h2v21H3V5h2V4H2.5z M2.5,4" class="st0"/><path d="M13.5,20c-0.82,0-1.5,0.68-1.5,1.5s0.68,1.5,1.5,1.5c0.82,0,1.5-0.68,1.5-1.5S14.32,20,13.5,20L13.5,20z M13.5,21c0.28,0,0.5,0.22,0.5,0.5c0,0.28-0.22,0.5-0.5,0.5c-0.28,0-0.5-0.22-0.5-0.5C13,21.22,13.22,21,13.5,21L13.5,21z M13.5,21" class="st0"/><path d="M15.49,8.99C15.21,8.99,15,9.22,15,9.5V16H6.5C6.22,16,6,16.22,6,16.5v8c0,0.18,0.09,0.35,0.25,0.44 c0.16,0.09,0.35,0.09,0.51,0C6.91,24.84,7,24.68,7,24.5V17h8.5c0.28,0,0.5-0.23,0.5-0.5v-7c0-0.14-0.05-0.27-0.14-0.36 C15.76,9.03,15.63,8.98,15.49,8.99L15.49,8.99z M15.49,8.99" class="st1"/><path d="M15.46,8.5c-0.14,0.01-0.27,0.08-0.36,0.2l-1.5,2c-0.16,0.22-0.12,0.53,0.1,0.7c0.22,0.16,0.54,0.12,0.7-0.1 l1.1-1.47l1.1,1.47c0.17,0.22,0.48,0.26,0.7,0.1c0.22-0.17,0.27-0.48,0.1-0.7l-1.5-2C15.8,8.57,15.63,8.49,15.46,8.5L15.46,8.5z M15.46,8.5" class="st1"/><path d="M9.62,8C9.49,8,9.36,8.06,9.27,8.15l-2.12,2.12c-0.13,0.12-0.18,0.31-0.14,0.49c0.04,0.18,0.18,0.31,0.35,0.35 c0.18,0.05,0.36,0,0.49-0.14l2.12-2.12c0.15-0.14,0.2-0.36,0.11-0.55C10.01,8.11,9.82,7.99,9.62,8L9.62,8z M9.62,8" class="st1"/><path d="M7.5,8C7.3,8,7.11,8.12,7.04,8.31C6.96,8.5,7.01,8.72,7.15,8.86l2.12,2.12c0.13,0.13,0.31,0.18,0.49,0.14 c0.18-0.04,0.31-0.18,0.36-0.35c0.05-0.18-0.01-0.36-0.14-0.49L7.86,8.15C7.77,8.05,7.64,8,7.5,8L7.5,8z M7.5,8" class="st1"/><path d="M6.5,0C6.22,0,6,0.22,6,0.5v4C6,4.78,6.22,5,6.5,5h9C15.78,5,16,4.78,16,4.5v-4C16,0.22,15.78,0,15.5,0H6.5z M7,1h8v3H7V1z M7,1" class="st0"/></g></svg>