<svg xmlns="http://www.w3.org/2000/svg" xmlns:xlink="http://www.w3.org/1999/xlink" id="Layer_1" x="0" y="0" version="1.1" viewBox="0 0 29 18" xml:space="preserve" style="enable-background:new 0 0 29 18"><style type="text/css">.st0,.st1{fill:#be2c34}.st1{fill-rule:evenodd;clip-rule:evenodd}</style><g><path d="M2.74,0c-0.27,0-0.5,0.22-0.5,0.5v15c0,0.28,0.23,0.5,0.5,0.5h23.52c0.28,0,0.5-0.22,0.5-0.5v-15 c0-0.28-0.22-0.5-0.5-0.5H2.74z M3.24,1h22.52v14H3.24V1z M3.24,1" class="st0"/><path d="M0.5,15C0.22,15,0,15.22,0,15.5C0,16.91,1.26,18,2.74,18h23.52c1.48,0,2.74-1.09,2.74-2.5 c0-0.28-0.23-0.5-0.5-0.5H0.5z M1.23,16h26.53c-0.25,0.55-0.74,1-1.51,1H2.74C1.98,17,1.48,16.55,1.23,16L1.23,16z M1.23,16" class="st0"/><path d="M14.5,2.53c-3.02,0-5.47,2.45-5.47,5.47s2.45,5.47,5.47,5.47c3.01,0,5.47-2.45,5.47-5.47S17.51,2.53,14.5,2.53 L14.5,2.53z M14,3.63v8.74c-2.23-0.26-3.97-2.07-3.97-4.37C10.03,5.7,11.77,3.89,14,3.63L14,3.63z M15,3.63 C17.22,3.89,18.97,5.7,18.97,8c0,2.3-1.75,4.11-3.97,4.37V3.63z M15,3.63" class="st0"/><path d="M12.44,3.19c-1.29,3.19-1.51,6.27-0.09,9.59l0.92-0.39c-1.32-3.09-1.12-5.8,0.11-8.83L12.44,3.19z M16.63,3.19 l-0.93,0.38c1.23,3.02,1.42,5.74,0.1,8.83l0.92,0.39C18.14,9.46,17.93,6.38,16.63,3.19L16.63,3.19z M16.63,3.19" class="st1"/><path d="M9.53,6.08v1h9.94v-1H9.53z M9.53,8.92v1h9.94v-1H9.53z M9.53,8.92" class="st1"/></g></svg>